<svg xmlns="http://www.w3.org/2000/svg" viewBox="0 0 4.233 4.233" height="16" width="16">
    <path d="M24.152 44.302s-.179-.585.467-.464c.329-.452.74-.192.8-.08.206.326-.095.514-.095.514-.004.188.695 1.697.9 1.722.357-.155.75.096.705.501-.069.414-.288.335-.558.251.014.25-.275.627-.7.263-.438-.407-.005-.723-.005-.723.1-.196-.749-1.732-.984-1.708 0 0-.395.052-.53-.276z" style="fill:#faa;stroke:#000;stroke-width:.00433529;stroke-linecap:butt;stroke-linejoin:miter;stroke-miterlimit:4;stroke-dasharray:none;stroke-opacity:1" transform="translate(-22.719 -43.348)"/>
    <path style="fill:#faa;stroke:#000;stroke-width:.00594772;stroke-linejoin:round;stroke-miterlimit:4;stroke-dasharray:none;stroke-dashoffset:.5586;stroke-opacity:1" d="M22.758 45.246h1.536v.23h-1.536zM22.758 45.772h1.882v.23h-1.882zM22.758 46.337h2.358v.23h-2.358zM22.758 44.702h.959v.23h-.959z" transform="translate(-22.719 -43.348)"/>
</svg>
